<?xml version="1.0" standalone="no"?>
<!DOCTYPE svg PUBLIC "-//W3C//DTD SVG 20010904//EN"
 "http://www.w3.org/TR/2001/REC-SVG-20010904/DTD/svg10.dtd">
<svg version="1.0" xmlns="http://www.w3.org/2000/svg"
 width="500.000000pt" height="500.000000pt" viewBox="0 0 500.000000 500.000000"
 preserveAspectRatio="xMidYMid meet">
<metadata>
Created by potrace 1.15, written by Peter Selinger 2001-2017
</metadata>
<g transform="translate(0.000000,500.000000) scale(0.100000,-0.100000)"
fill="#000000" stroke="none">
<path d="M2200 4745 c-817 -114 -1503 -655 -1800 -1417 -106 -272 -150 -509
-150 -818 0 -309 44 -546 150 -818 110 -282 271 -532 484 -751 363 -372 810
-597 1326 -666 212 -29 544 -16 760 30 733 154 1356 684 1630 1387 106 272
150 509 150 818 0 310 -44 546 -151 821 -226 581 -698 1052 -1281 1279 -176
69 -333 109 -528 135 -131 18 -461 18 -590 0z m699 -140 c571 -112 1065 -448
1385 -942 97 -151 206 -395 255 -573 82 -302 96 -663 36 -969 -112 -571 -448
-1065 -942 -1385 -151 -97 -395 -206 -573 -255 -302 -82 -663 -96 -969 -36
-571 112 -1065 448 -1385 942 -97 151 -206 395 -255 573 -82 302 -96 663 -36
969 112 571 448 1065 942 1385 151 97 395 206 573 255 302 82 663 96 969 36z"/>
<path d="M2210 4515 c-201 -29 -392 -87 -575 -174 -225 -107 -387 -221 -561
-395 -174 -174 -288 -337 -395 -561 -133 -281 -189 -532 -189 -855 0 -323 56
-574 189 -855 107 -224 221 -387 395 -561 174 -174 337 -288 561 -395 281
-133 532 -189 855 -189 323 0 574 56 855 189 224 107 387 221 561 395 174 174
288 337 395 561 133 281 189 532 189 855 0 323 -56 574 -189 855 -107 224
-221 387 -395 561 -313 312 -703 507 -1141 569 -122 18 -436 18 -555 0z m570
-135 c124 -22 289 -69 402 -115 610 -249 1043 -802 1143 -1461 20 -130 20
-408 0 -538 -125 -822 -759 -1456 -1581 -1581 -130 -20 -408 -20 -538 0 -822
125 -1456 759 -1581 1581 -20 130 -20 408 0 538 61 403 244 767 529 1052 275
275 622 454 1016 525 150 27 458 27 610 -1z"/>
</g>
</svg>
